HIERARCHY
ROOT Root
{
  OFFSET 0.0 0.0 0.0
  CHANNELS 6 Xposition Yposition Zposition Zrotation Yrotation Xrotation
  JOINT Hips
  {
    OFFSET 0.0 100.0 0.0
    CHANNELS 6 Xposition Yposition Zposition Zrotation Yrotation Xrotation
    JOINT Spine1
    {
      OFFSET -0.013727 5.003763 -0.053727
      CHANNELS 3 Zrotation Yrotation Xrotation
      JOINT Spine2
      {
        OFFSET -0.0 7.125301 -0.029825
        CHANNELS 3 Zrotation Yrotation Xrotation
        JOINT Chest
        {
          OFFSET -1e-06 7.550063 -0.815971
          CHANNELS 3 Zrotation Yrotation Xrotation
          JOINT Neck1
          {
            OFFSET -0.181677 26.311295 -0.553348
            CHANNELS 3 Zrotation Yrotation Xrotation
            JOINT Neck2
            {
              OFFSET -3e-06 7.709397 2.302585
              CHANNELS 3 Zrotation Yrotation Xrotation
              JOINT Head
              {
                OFFSET -5e-06 6.128916 1.953709
                CHANNELS 3 Zrotation Yrotation Xrotation
                JOINT HeadEnd
                {
                  OFFSET 0.003598 16.065403 -1.835379
                  CHANNELS 3 Zrotation Yrotation Xrotation
                }
                JOINT Jaw
                {
                  OFFSET 0.002637 0.475592 3.094941
                  CHANNELS 3 Zrotation Yrotation Xrotation
                }
                JOINT LeftEye
                {
                  OFFSET 3.206381 5.380205 7.586883
                  CHANNELS 3 Zrotation Yrotation Xrotation
                }
                JOINT RightEye
                {
                  OFFSET -3.22244 5.361869 7.558234
                  CHANNELS 3 Zrotation Yrotation Xrotation
                }
              }
            }
          }
          JOINT LeftShoulder
          {
            OFFSET 1.621652 23.237164 5.113413
            CHANNELS 3 Zrotation Yrotation Xrotation
            JOINT LeftArm
            {
              OFFSET 14.919846 2e-06 -5.502326
              CHANNELS 3 Zrotation Yrotation Xrotation
              JOINT LeftForeArm
              {
                OFFSET 28.739307 0.0 -0.002588
                CHANNELS 3 Zrotation Yrotation Xrotation
                JOINT LeftHand
                {
                  OFFSET 27.093981 -1e-06 0.002609
                  CHANNELS 3 Zrotation Yrotation Xrotation
                  JOINT LeftHandThumb1
                  {
                    OFFSET 2.276482 -1.392045 3.191413
                    CHANNELS 3 Zrotation Yrotation Xrotation
                    JOINT LeftHandThumb2
                    {
                      OFFSET 4.012836 -1.828127 1.641654
                      CHANNELS 3 Zrotation Yrotation Xrotation
                      JOINT LeftHandThumb3
                      {
                        OFFSET 2.798515 0.0 -3e-06
                        CHANNELS 3 Zrotation Yrotation Xrotation
                        JOINT LeftHandThumbEnd
                        {
                          OFFSET 3.180793 -4e-06 4e-06
                          CHANNELS 3 Zrotation Yrotation Xrotation
                        }
                      }
                    }
                  }
                  JOINT LeftHandIndex1
                  {
                    OFFSET 3.247555 -0.531998 2.296169
                    CHANNELS 3 Zrotation Yrotation Xrotation
                    JOINT LeftHandIndex2
                    {
                      OFFSET 6.364578 0.01206 0.1786
                      CHANNELS 3 Zrotation Yrotation Xrotation
                      JOINT LeftHandIndex3
                      {
                        OFFSET 3.662364 0.0 0.0
                        CHANNELS 3 Zrotation Yrotation Xrotation
                        JOINT LeftHandIndex4
                        {
                          OFFSET 2.329242 4e-06 4e-06
                          CHANNELS 3 Zrotation Yrotation Xrotation
                          JOINT LeftHandIndexEnd
                          {
                            OFFSET 2.759615 -0.180537 -0.113024
                            CHANNELS 3 Zrotation Yrotation Xrotation
                          }
                        }
                      }
                    }
                  }
                  JOINT LeftHandMiddle1
                  {
                    OFFSET 3.163495 0.240981 1.000332
                    CHANNELS 3 Zrotation Yrotation Xrotation
                    JOINT LeftHandMiddle2
                    {
                      OFFSET 6.19078 -0.259278 -1.002548
                      CHANNELS 3 Zrotation Yrotation Xrotation
                      JOINT LeftHandMiddle3
                      {
                        OFFSET 4.35652 -4e-06 -1e-06
                        CHANNELS 3 Zrotation Yrotation Xrotation
                        JOINT LeftHandMiddle4
                        {
                          OFFSET 2.996877 -8e-06 0.0
                          CHANNELS 3 Zrotation Yrotation Xrotation
                          JOINT LeftHandMiddleEnd
                          {
                            OFFSET 2.304287 -0.294569 -0.031741
                            CHANNELS 3 Zrotation Yrotation Xrotation
                          }
                        }
                      }
                    }
                  }
                  JOINT LeftHandRing1
                  {
                    OFFSET 2.882643 -0.053652 -0.322543
                    CHANNELS 3 Zrotation Yrotation Xrotation
                    JOINT LeftHandRing2
                    {
                      OFFSET 5.854541 -0.486202 -1.373841
                      CHANNELS 3 Zrotation Yrotation Xrotation
                      JOINT LeftHandRing3
                      {
                        OFFSET 4.350578 0.0 3e-06
                        CHANNELS 3 Zrotation Yrotation Xrotation
                        JOINT LeftHandRing4
                        {
                          OFFSET 2.651321 7e-06 2e-06
                          CHANNELS 3 Zrotation Yrotation Xrotation
                          JOINT LeftHandRingEnd
                          {
                            OFFSET 1.936105 0.077687 -7.1e-05
                            CHANNELS 3 Zrotation Yrotation Xrotation
                          }
                        }
                      }
                    }
                  }
                  JOINT LeftHandPinky1
                  {
                    OFFSET 2.8655 -0.310005 -1.600378
                    CHANNELS 3 Zrotation Yrotation Xrotation
                    JOINT LeftHandPinky2
                    {
                      OFFSET 5.087849 -1.331141 -1.77123
                      CHANNELS 3 Zrotation Yrotation Xrotation
                      JOINT LeftHandPinky3
                      {
                        OFFSET 3.070974 4e-06 0.0
                        CHANNELS 3 Zrotation Yrotation Xrotation
                        JOINT LeftHandPinky4
                        {
                          OFFSET 1.549672 0.0 1e-06
                          CHANNELS 3 Zrotation Yrotation Xrotation
                          JOINT LeftHandPinkyEnd
                          {
                            OFFSET 1.944893 -0.157802 0.057219
                            CHANNELS 3 Zrotation Yrotation Xrotation
                          }
                        }
                      }
                    }
                  }
                }
              }
            }
          }
          JOINT RightShoulder
          {
            OFFSET -1.380118 23.180309 5.214158
            CHANNELS 3 Zrotation Yrotation Xrotation
            JOINT RightArm
            {
              OFFSET -15.037196 1.2e-05 -5.545604
              CHANNELS 3 Zrotation Yrotation Xrotation
              JOINT RightForeArm
              {
                OFFSET -28.736639 2e-06 -0.002597
                CHANNELS 3 Zrotation Yrotation Xrotation
                JOINT RightHand
                {
                  OFFSET -27.133619 -0.0 0.002613
                  CHANNELS 3 Zrotation Yrotation Xrotation
                  JOINT RightHandThumb1
                  {
                    OFFSET -2.274032 -1.383988 3.163127
                    CHANNELS 3 Zrotation Yrotation Xrotation
                    JOINT RightHandThumb2
                    {
                      OFFSET -4.011429 -1.827466 1.640914
                      CHANNELS 3 Zrotation Yrotation Xrotation
                      JOINT RightHandThumb3
                      {
                        OFFSET -2.794935 -4e-06 -3e-06
                        CHANNELS 3 Zrotation Yrotation Xrotation
                        JOINT RightHandThumbEnd
                        {
                          OFFSET -3.183852 4e-06 1e-06
                          CHANNELS 3 Zrotation Yrotation Xrotation
                        }
                      }
                    }
                  }
                  JOINT RightHandIndex1
                  {
                    OFFSET -3.253266 -0.520057 2.282866
                    CHANNELS 3 Zrotation Yrotation Xrotation
                    JOINT RightHandIndex2
                    {
                      OFFSET -6.341917 0.012471 0.178266
                      CHANNELS 3 Zrotation Yrotation Xrotation
                      JOINT RightHandIndex3
                      {
                        OFFSET -3.654871 -8e-06 -0.0
                        CHANNELS 3 Zrotation Yrotation Xrotation
                        JOINT RightHandIndex4
                        {
                          OFFSET -2.327586 0.0 1e-06
                          CHANNELS 3 Zrotation Yrotation Xrotation
                          JOINT RightHandIndexEnd
                          {
                            OFFSET -2.76179 -0.180656 -0.113078
                            CHANNELS 3 Zrotation Yrotation Xrotation
                          }
                        }
                      }
                    }
                  }
                  JOINT RightHandMiddle1
                  {
                    OFFSET -3.168106 0.246593 1.00103
                    CHANNELS 3 Zrotation Yrotation Xrotation
                    JOINT RightHandMiddle2
                    {
                      OFFSET -6.180828 -0.258836 -1.000895
                      CHANNELS 3 Zrotation Yrotation Xrotation
                      JOINT RightHandMiddle3
                      {
                        OFFSET -4.348901 0.0 -0.0
                        CHANNELS 3 Zrotation Yrotation Xrotation
                        JOINT RightHandMiddle4
                        {
                          OFFSET -3.00024 -4e-06 -2e-06
                          CHANNELS 3 Zrotation Yrotation Xrotation
                          JOINT RightHandMiddleEnd
                          {
                            OFFSET -2.30252 -0.29437 -0.031706
                            CHANNELS 3 Zrotation Yrotation Xrotation
                          }
                        }
                      }
                    }
                  }
                  JOINT RightHandRing1
                  {
                    OFFSET -2.88569 -0.067952 -0.308858
                    CHANNELS 3 Zrotation Yrotation Xrotation
                    JOINT RightHandRing2
                    {
                      OFFSET -5.854198 -0.48613 -1.373731
                      CHANNELS 3 Zrotation Yrotation Xrotation
                      JOINT RightHandRing3
                      {
                        OFFSET -4.33881 -4e-06 -0.0
                        CHANNELS 3 Zrotation Yrotation Xrotation
                        JOINT RightHandRing4
                        {
                          OFFSET -2.654903 -4e-06 4e-06
                          CHANNELS 3 Zrotation Yrotation Xrotation
                          JOINT RightHandRingEnd
                          {
                            OFFSET -1.933568 0.077527 -5.2e-05
                            CHANNELS 3 Zrotation Yrotation Xrotation
                          }
                        }
                      }
                    }
                  }
                  JOINT RightHandPinky1
                  {
                    OFFSET -2.866425 -0.342796 -1.584145
                    CHANNELS 3 Zrotation Yrotation Xrotation
                    JOINT RightHandPinky2
                    {
                      OFFSET -5.091371 -1.332055 -1.772385
                      CHANNELS 3 Zrotation Yrotation Xrotation
                      JOINT RightHandPinky3
                      {
                        OFFSET -3.062664 -4e-06 1e-06
                        CHANNELS 3 Zrotation Yrotation Xrotation
                        JOINT RightHandPinky4
                        {
                          OFFSET -1.546529 4e-06 -2e-06
                          CHANNELS 3 Zrotation Yrotation Xrotation
                          JOINT RightHandPinkyEnd
                          {
                            OFFSET -1.945119 -0.157718 0.057211
                            CHANNELS 3 Zrotation Yrotation Xrotation
                          }
                        }
                      }
                    }
                  }
                }
              }
            }
          }
        }
      }
    }
    JOINT LeftLeg
    {
      OFFSET 10.043214 -8.434526 2.595655
      CHANNELS 3 Zrotation Yrotation Xrotation
      JOINT LeftShin
      {
        OFFSET -1e-06 -43.221752 -0.802913
        CHANNELS 3 Zrotation Yrotation Xrotation
        JOINT LeftFoot
        {
          OFFSET 1e-06 -42.155094 -3.481523
          CHANNELS 3 Zrotation Yrotation Xrotation
          JOINT LeftToeBase
          {
            OFFSET 0.0 -5.059472 13.231529
            CHANNELS 3 Zrotation Yrotation Xrotation
            JOINT LeftToeEnd
            {
              OFFSET -0.009607 -1.647619 6.513017
              CHANNELS 3 Zrotation Yrotation Xrotation
            }
          }
        }
      }
    }
    JOINT RightLeg
    {
      OFFSET -10.047278 -8.29526 2.620317
      CHANNELS 3 Zrotation Yrotation Xrotation
      JOINT RightShin
      {
        OFFSET 1e-06 -43.362206 -0.805556
        CHANNELS 3 Zrotation Yrotation Xrotation
        JOINT RightFoot
        {
          OFFSET 2e-06 -42.117393 -3.478398
          CHANNELS 3 Zrotation Yrotation Xrotation
          JOINT RightToeBase
          {
            OFFSET -0.0 -5.079609 13.284196
            CHANNELS 3 Zrotation Yrotation Xrotation
            JOINT RightToeEnd
            {
              OFFSET 0.009532 -1.634378 6.460591
              CHANNELS 3 Zrotation Yrotation Xrotation
            }
          }
        }
      }
    }
  }
}
MOTION
Frames: 4
Frame Time: 0.03333333333333333
0.0 0.0 0.0 0.0 -0.0 0.0 1.424114 98.682144 -3.7379 3.351043 0.033297 0.277883 -3.209434 0.569475 3.476604 -1.553558 2.232956 -4.107741 -5.238754 0.571093 16.596375 -5.677807 4.729745 4.445779 -0.517929 0.495323 -3.796727 2.534333 -0.764288 -15.757899 7.7e-05 -2.2e-05 6e-06 0.035488 -0.086154 0.005411 0.723723 -3.823335 -10.633302 -0.663833 3.656418 -10.662271 -12.836514 -8.391364 17.369768 -49.630131 -5.959555 17.414196 -0.431197 -37.000397 0.753793 0.651384 9.093328 -15.428011 -5.882108 9.861288 0.70259 -10.936875 -0.360576 7.156208 0.0 8.774829 -1e-06 -16.585875 17.866547 5.874589 -1.844033 2.498505 -2.507279 -10.163603 4.678946 4.62111 -20.97603 -4e-06 1e-06 -21.226292 2.451695 -3.594002 0.0 -7e-06 -1e-06 -1.362682 2.240799 -0.746324 -21.334923 0.584908 3.008324 -13.82122 -4e-06 1e-06 -23.887178 -0.249081 -0.839482 -60.728687 2.361109 -1.020277 -0.294024 1.679688 0.833257 -14.218214 0.093214 1.300579 -34.212059 -0.287565 0.96717 -20.033218 0.964536 1.212843 -0.0 -1e-06 -0.0 -3.440389 0.788233 0.501656 -15.928189 -3.167311 2.999709 -6.338828 -2e-06 2e-06 -18.123451 3.648183 -4.90567 -4e-06 0.0 -2e-06 2.273079 15.012377 18.381079 64.38623 17.484921 29.836889 -0.088701 36.239594 -0.246895 0.794204 -4.971551 -9.042308 2.243541 -5.255035 -3.180155 14.282887 -0.826594 6.952499 -2e-06 -12.690601 -1e-06 16.138485 -17.238993 2.663512 1.665666 -1.955921 -2.878299 4.727798 -4.170587 4.993924 11.020524 3e-06 -0.0 12.10905 -3.735715 -2.866783 -0.0 -0.0 2e-06 1.291985 -1.928549 -1.498091 14.800125 0.567468 3.865608 14.242569 -1.341736 -6.660656 19.631962 0.143928 -0.648244 49.742912 -0.690771 -6.308208 0.353029 -1.51115 -0.03194 20.222786 3.684311 2.316629 18.78727 6e-06 -1e-06 10.751625 -0.479869 1.397907 1e-06 -1e-06 -0.0 3.273806 0.305947 -0.580112 21.486809 11.830371 2.26613 8.162928 3e-06 -2e-06 18.399076 -3.798983 -4.940574 2e-06 -1e-06 -1e-06 -3.158986 8.726601 -16.88446 -0.078477 0.002634 16.940424 -5.886709 0.282737 -0.290428 1.649305 -1.817092 -1.943548 0.0 -0.0 2e-06 -4.836399 -8.096584 10.532626 -0.128649 0.307712 21.49332 2.107579 -9.564123 -5.735662 -1.536745 1.008312 -8.84288 0.0 0.0 -1e-06 
0.0 0.0 0.0 0.0 -0.0 0.0 1.618798 99.119713 -2.787946 2.574524 -0.367266 -0.075245 -3.062309 0.492976 3.653356 -1.523376 2.072364 -3.942099 -5.962131 0.502938 16.568487 -5.836372 4.84907 4.826024 -0.444344 0.860873 -3.807082 2.939553 -0.490965 -15.114099 7.7e-05 -2.2e-05 6e-06 0.040473 -0.017827 0.005173 0.714253 -3.737361 -10.584986 -0.644149 3.706773 -10.627394 -14.221771 -9.11754 17.67351 -47.674934 -6.168291 12.7293 -0.628979 -36.510109 0.597476 2.198035 8.345456 -16.765638 -5.88211 9.861294 0.702591 -10.936877 -0.360574 7.156209 -1e-06 8.774833 -1e-06 -16.364573 17.78063 6.032814 -1.844033 2.498507 -2.507278 -10.163604 4.67895 4.62111 -20.976034 -1e-06 2e-06 -21.226297 2.451702 -3.594004 -1e-06 -6e-06 0.0 -1.362682 2.2408 -0.746324 -21.334927 0.584913 3.008325 -13.821219 -1e-06 2e-06 -23.887182 -0.249076 -0.839486 -60.626228 2.390148 -1.122232 -0.294025 1.679688 0.833256 -14.218215 0.093217 1.300581 -34.212067 -0.28756 0.967168 -20.033224 0.964539 1.212842 -0.0 -1e-06 -1e-06 -3.44039 0.788234 0.501657 -15.928192 -3.16731 2.999709 -6.338828 0.0 -0.0 -18.123455 3.648188 -4.905674 -2e-06 0.0 -1e-06 1.758552 14.461224 18.177851 64.588562 17.753721 29.510529 0.017294 38.180134 -0.202018 1.54519 -5.829383 -9.026274 2.243543 -5.255038 -3.180158 14.282896 -0.826596 6.952506 -2e-06 -12.690605 -0.0 16.285622 -17.1721 2.64097 1.665667 -1.955922 -2.8783 4.727801 -4.170588 4.993926 11.020534 2e-06 -1e-06 12.109058 -3.735718 -2.866785 0.0 -0.0 2e-06 1.291987 -1.92855 -1.498087 14.800136 0.567467 3.865608 14.24258 -1.341738 -6.660661 19.631975 0.143923 -0.648246 49.998905 -0.630521 -6.29416 0.353029 -1.511151 -0.03194 20.222801 3.684309 2.316631 18.787283 3e-06 -1e-06 10.751636 -0.479869 1.397905 1e-06 -2e-06 0.0 3.273808 0.305947 -0.58011 21.486824 11.830376 2.266134 8.16293 2e-06 -2e-06 18.399092 -3.798987 -4.940577 3e-06 -0.0 -1e-06 -2.320295 10.024326 -14.963848 -0.175457 -0.177112 15.250397 -5.642114 -0.73889 -0.083209 1.653903 -1.83245 -1.58535 0.0 0.0 2e-06 -4.383132 -8.411422 8.53193 -0.130594 0.252773 27.443735 1.259599 -10.456529 -1.914321 -1.601478 0.991609 -9.95658 -0.0 0.0 -1e-06 
0.0 0.0 0.0 0.0 -0.0 0.0 2.145704 99.369286 -0.999894 2.108515 -1.195859 -0.597425 -3.070898 0.49358 3.901633 -1.523278 1.853058 -3.809314 -6.485142 0.384565 16.736801 -6.057676 5.153503 5.139714 -0.313698 1.316937 -3.837089 3.066488 0.068488 -14.418601 7.7e-05 -2.3e-05 6e-06 0.044038 -0.008244 0.003306 0.717031 -3.710164 -10.56002 -0.640179 3.69944 -10.597856 -15.549843 -9.723722 17.806244 -45.782139 -6.430374 9.498187 -0.530207 -36.815029 0.445184 3.144783 7.987514 -17.871405 -5.882106 9.861284 0.702589 -10.936872 -0.360575 7.156205 -0.0 8.774824 -2e-06 -16.36227 17.796309 6.040869 -1.844033 2.498504 -2.507277 -10.163599 4.678944 4.621109 -20.976021 -3e-06 2e-06 -21.226284 2.451697 -3.593999 -1e-06 -6e-06 -0.0 -1.362681 2.240798 -0.746323 -21.334913 0.58491 3.008323 -13.821213 -3e-06 2e-06 -23.887173 -0.249079 -0.839483 -60.606796 2.41879 -1.308693 -0.294025 1.679687 0.833256 -14.218207 0.093215 1.300581 -34.212048 -0.287564 0.967171 -20.033209 0.964536 1.212844 -0.0 -0.0 -1e-06 -3.440388 0.788233 0.501655 -15.928185 -3.167309 2.999708 -6.338825 -1e-06 2e-06 -18.123444 3.648181 -4.905671 -2e-06 0.0 -1e-06 1.674669 14.042408 18.04908 63.941513 18.105738 28.960491 -0.021304 40.37759 -0.205799 1.989333 -6.201915 -9.267868 2.243542 -5.255037 -3.180157 14.282896 -0.826595 6.952507 -4e-06 -12.690604 1e-06 16.333569 -17.160229 2.62228 1.665666 -1.955921 -2.878298 4.7278 -4.170588 4.993924 11.02053 3e-06 -1e-06 12.109056 -3.735716 -2.866784 0.0 -0.0 3e-06 1.291986 -1.92855 -1.498091 14.800134 0.567469 3.865608 14.242577 -1.341735 -6.660659 19.631973 0.143926 -0.648246 50.093719 -0.627262 -6.294126 0.353029 -1.511151 -0.031939 20.222801 3.68431 2.316631 18.787281 5e-06 0.0 10.751633 -0.47987 1.397907 -1e-06 -2e-06 0.0 3.273807 0.305948 -0.580112 21.48682 11.830378 2.266134 8.16293 3e-06 -2e-06 18.399092 -3.798984 -4.940573 3e-06 1e-06 -1e-06 -1.801157 10.573802 -12.88031 -0.182936 -0.225879 14.873145 -5.003911 -0.914035 -1.308517 1.663744 -1.820483 -1.198628 -0.0 -0.0 2e-06 -4.686605 -8.606472 5.200873 -0.065527 0.223849 35.745003 0.877565 -10.39751 1.992609 -1.674142 1.020285 -8.496133 0.0 0.0 -3e-06 
0.0 0.0 0.0 0.0 -0.0 0.0 2.715303 99.498413 0.808305 1.816755 -2.215828 -1.339366 -3.13733 0.469362 4.255164 -1.519987 1.637961 -3.705339 -6.835609 0.243001 17.049854 -6.346937 5.533607 5.470767 -0.092568 1.846377 -3.872355 2.935321 0.891805 -13.932245 7.7e-05 -2.3e-05 6e-06 0.048503 -0.028466 0.005322 0.735074 -3.722076 -10.567137 -0.649882 3.671439 -10.598398 -16.430498 -10.210308 17.845144 -44.150772 -7.132563 7.736796 -0.396285 -37.301559 0.307767 3.669661 7.614011 -18.695587 -5.882114 9.861295 0.702591 -10.936885 -0.360575 7.15621 1e-06 8.774835 -1e-06 -16.394405 17.815636 6.011306 -1.844035 2.498507 -2.507279 -10.163613 4.67895 4.621111 -20.976055 -4e-06 2e-06 -21.226316 2.451699 -3.594004 -1e-06 -6e-06 0.0 -1.362683 2.240801 -0.746323 -21.334942 0.58491 3.008324 -13.821232 -3e-06 1e-06 -23.887203 -0.249081 -0.839484 -60.630203 2.401789 -1.387839 -0.294025 1.679689 0.833257 -14.218227 0.093215 1.300579 -34.212097 -0.287566 0.967168 -20.033236 0.964535 1.212843 -0.0 -1e-06 0.0 -3.440393 0.788234 0.501656 -15.928206 -3.167313 2.999707 -6.338833 -1e-06 1e-06 -18.12347 3.648186 -4.905677 -2e-06 1e-06 -3e-06 1.749354 13.62902 18.010574 63.026154 18.684391 28.080473 -0.038916 42.53355 -0.282581 1.910849 -6.326492 -9.573411 2.243544 -5.255044 -3.180161 14.282907 -0.826596 6.952507 -2e-06 -12.690619 -0.0 16.352024 -17.178181 2.593076 1.665668 -1.955924 -2.8783 4.727805 -4.170592 4.993926 11.02054 2e-06 -1e-06 12.109065 -3.73572 -2.866788 0.0 -0.0 1e-06 1.291987 -1.928551 -1.498091 14.800144 0.567469 3.86561 14.242588 -1.341737 -6.660665 19.63199 0.143926 -0.648246 50.087097 -0.625061 -6.262071 0.353029 -1.511152 -0.031939 20.222815 3.684314 2.31663 18.787294 6e-06 -4e-06 10.751639 -0.47987 1.397907 -0.0 1e-06 1e-06 3.27381 0.305948 -0.580113 21.486837 11.83039 2.266134 8.162937 2e-06 -2e-06 18.399103 -3.798988 -4.940583 3e-06 0.0 -1e-06 -1.444289 10.853791 -10.642471 -0.140936 -0.192838 14.741782 -4.317326 -0.513529 -2.761883 1.662201 -1.829557 -0.848872 -0.0 0.0 2e-06 -5.226543 -8.657241 1.468652 -0.00875 0.177638 44.21825 0.397097 -10.110343 5.129181 -1.697285 1.056012 -4.815355 0.0 0.0 -3e-06 
